<!-- 情绪计划火焰 · 填充图标 · 32×32 -->
<!-- 暖橙色 #E8956A · 带呼吸灯内芯 -->
<svg xmlns="http://www.w3.org/2000/svg" viewBox="0 0 32 32" width="32" height="32">
  <!-- 外层火焰（浅色） -->
  <path d="M16 3 C18.5 5.5 21 8.5 22.2 12 C23.5 15.5 23.5 19 21.5 22.5 C19.5 26 16.5 28 14 28 C11 28 8.5 26 7 23 C5.5 20 5.5 16.5 6.8 13 C7.8 10.5 9.5 8 11.5 6 C13 4.5 14.5 3.5 16 3 Z" fill="#F5C4A8" opacity="0.45"/>
  <!-- 主火焰体 -->
  <path d="M16 6 C18 8.5 20 11.5 20.8 15 C21.5 18.5 21 22 19 24.5 C17 27 14.5 28 12.8 27.5 C10.5 27 9 25 8 22.5 C7 20 7 17 8 14 C8.8 11.5 10.5 9.5 12.5 7.5 C14 6 15 5.2 16 6 Z" fill="#E8956A"/>
  <!-- 火焰内芯高光 -->
  <path d="M16 12 C17.2 14 17.8 16.5 17.5 19 C17.2 21.5 16 23.5 14.5 24 C13 24.5 11.8 23.5 11 22 C10.2 20.5 10.2 18.5 10.8 16.5 C11.3 15 12.5 13.5 14 12.5 C14.6 12.1 15.3 11.9 16 12 Z" fill="white" opacity="0.5"/>
  <!-- 呼吸灯内芯 -->
  <ellipse cx="14.8" cy="19" rx="2.8" ry="3.5" fill="white">
    <animate attributeName="opacity" values="0.5;0.12;0.5" dur="1.8s" repeatCount="indefinite"/>
  </ellipse>
</svg>
